<?xml version="1.0" encoding="UTF-8"?>
<svg width="200" height="200" viewBox="0 0 200 200" fill="none" xmlns="http://www.w3.org/2000/svg">
  <circle cx="100" cy="100" r="90" fill="#1CD6C1"/>
  <path d="M100 50C89.2 50 80 59.2 80 70C80 80.8 89.2 90 100 90C110.8 90 120 80.8 120 70C120 59.2 110.8 50 100 50ZM85 95C75 95 65 100 65 110V115C65 117.5 67.5 120 70 120H130C132.5 120 135 117.5 135 115V110C135 100 125 95 115 95H85Z" fill="#003B73"/>
  <path d="M100 140C116.569 140 130 126.569 130 110C130 93.4315 116.569 80 100 80C83.4315 80 70 93.4315 70 110C70 126.569 83.4315 140 100 140Z" fill="#003B73"/>
</svg> 